# xmcd CD database file
#
# Track frame offsets:
#	150
#	22815
#	39609
#	59962
#	75924
#	96511
#	115434
#	136270
#	157083
#	180890
#
# Disc length: 2634 seconds
#
# Revision: 0
# Processed by: cddbd v1.5.2PL0 Copyright (c) Steve Scherf et al.
# Submitted via: CDex 1.70beta2
#
DISCID=7f0a480a
DTITLE=The Laurie Morvan Band - Backroad Shack - Out Of The Woods
DYEAR=1997
DGENRE=Blues
TTITLE0=Shoulda Known Better
TTITLE1=Ain't Too Tough To Cry
TTITLE2=My Blue Eyes
TTITLE3=Electric Shack
TTITLE4=Not Enough
TTITLE5=Sweet Lover's Moon
TTITLE6=Take It Like A Man
TTITLE7=Old Greybeard
TTITLE8=Love Won't Wait
TTITLE9=One Step Short
EXTD=YEAR: 1997
EXTT0=
EXTT1=
EXTT2=
EXTT3=
EXTT4=
EXTT5=
EXTT6=
EXTT7=
EXTT8=
EXTT9=
PLAYORDER=
